<svg xmlns="http://www.w3.org/2000/svg" viewBox="0 0 64 80" x="0px" y="0px"><title>1</title><g data-name="front end"><path d="M58,10H6a2.0026,2.0026,0,0,0-2,2V52a2.0026,2.0026,0,0,0,2,2H58a2.0026,2.0026,0,0,0,2-2V12A2.0026,2.0026,0,0,0,58,10Zm-2,5a1,1,0,1,1-1-1A1,1,0,0,1,56,15ZM21,15a.9994.9994,0,0,1-1,1H9a1,1,0,0,1,0-2H20A.9994.9994,0,0,1,21,15ZM6,52V20H58l.0016,32ZM32,24H10a.9994.9994,0,0,0-1,1V45a.9994.9994,0,0,0,1,1H32a.9994.9994,0,0,0,1-1V25A.9994.9994,0,0,0,32,24Zm-1,2V41.7188l-4.375-3.5a1.0036,1.0036,0,0,0-1.14-.0762l-4.33,2.5983L16.707,36.293a1.001,1.001,0,0,0-1.3477-.0615L11,39.8643V26ZM20,32a3,3,0,1,1,3,3A3.0033,3.0033,0,0,1,20,32Zm18,3h6a.9994.9994,0,0,0,1-1V25a.9994.9994,0,0,0-1-1H38a.9994.9994,0,0,0-1,1v9A.9994.9994,0,0,0,38,35Zm1-9h4v7H39ZM54,37H38a.9994.9994,0,0,0-1,1v7a.9994.9994,0,0,0,1,1H54a.9994.9994,0,0,0,1-1V38A.9994.9994,0,0,0,54,37Zm-1,7H39V39H53ZM47,26a.9994.9994,0,0,1,1-1h2a1,1,0,0,1,0,2H48A.9994.9994,0,0,1,47,26Zm0,4a.9994.9994,0,0,1,1-1h6a1,1,0,0,1,0,2H48A.9994.9994,0,0,1,47,30Zm8,4a.9994.9994,0,0,1-1,1H48a1,1,0,0,1,0-2h6A.9994.9994,0,0,1,55,34Z"/></g><text x="0" y="79" fill="#000000" font-size="5px" font-weight="bold" font-family="'Helvetica Neue', Helvetica, Arial-Unicode, Arial, Sans-serif">Created by mim studio</text><text x="0" y="84" fill="#000000" font-size="5px" font-weight="bold" font-family="'Helvetica Neue', Helvetica, Arial-Unicode, Arial, Sans-serif">from the Noun Project</text></svg>